<svg width="592" height="507" viewBox="0 0 592 507" fill="none" xmlns="http://www.w3.org/2000/svg">
<g filter="url(#filter0_i_2_12)">
<path d="M208 48C250.4 48 251.333 116.667 246.5 151C245.395 161.4 238.54 171.333 237.5 174L217.896 205.5C213.291 211.9 209.01 209.794 207.445 207.941L174 172L172.5 121.5C171.833 119 169.1 114 163.5 114C157.9 114 155.167 119 154.5 121.5V165L118.5 161.5C116.333 161.333 112 162.6 112 169C112 175.4 116.333 178.333 118.5 179L154.5 184.5C157.667 188.833 168.6 202 187 220C205.4 238 196 247.167 189 249.5L124.5 251.5L90 214.5C87.8333 214.167 82.8 214 80 216C77.2 218 76.5 223.5 76.5 226L102 253.5H65C62 254.833 56.1 259 56.5 265C56.9 271 62.3333 274.167 65 275L158.5 273.5L77.5 362C75.3333 364.667 71.7 371.2 74.5 376C77.3 380.8 85 379.333 88.5 378L154.5 307.5V397C154.833 401.167 157.2 409.5 164 409.5C170.8 409.5 173.5 401.167 174 397L173 292L229.5 241C235 236 246 231 246 240.5C245.833 262.5 246.3 313.3 247.5 358.5C248.7 403.7 222.333 433 209 442L112.5 489C88.1 503.8 65.6667 506.5 57.5 506C15.9 504 2.16667 468.833 0.5 451.5C0.5 439.667 0.8 403.2 2 352C3.2 300.8 19.1667 250.667 27 232C90.2 77.2 174 44.8333 208 48Z" fill="url(#paint0_linear_2_12)"/>
<path d="M383.153 48C340.582 48 339.645 116.667 344.498 151C345.607 161.4 351.456 171.833 352.5 174.5L373.217 205.5C377.84 211.9 382.139 209.794 383.711 207.941L417.29 172L418.796 121.5C419.466 119 422.21 114 427.833 114C433.455 114 436.2 119 436.869 121.5V165L473.014 161.5C475.19 161.333 479.54 162.6 479.54 169C479.54 175.4 475.19 178.333 473.014 179L436.869 184.5C433.69 188.833 422.712 202 404.238 220C385.764 238 395.202 247.167 402.23 249.5L466.99 251.5L501.629 214.5C503.804 214.167 508.858 214 511.669 216C514.481 218 515.184 223.5 515.184 226L489.581 253.5H526.73C529.742 254.833 535.666 259 535.264 265C534.863 271 529.407 274.167 526.73 275L432.853 273.5L514.18 362C516.355 364.667 520.003 371.2 517.192 376C514.38 380.8 506.649 379.333 503.135 378L436.869 307.5V397C436.534 401.167 434.158 409.5 427.331 409.5C420.503 409.5 417.792 401.167 417.29 397L418.294 292L361.567 241C356.044 236 345 231 345 240.5C345.167 262.5 344.699 313.3 343.494 358.5C342.289 403.7 368.762 433 382.149 442L479.038 489C503.537 503.8 526.061 506.5 534.26 506C576.028 504 589.817 468.833 591.49 451.5C591.49 439.667 591.189 403.2 589.984 352C588.779 300.8 572.748 250.667 564.883 232C501.428 77.2 417.29 44.8333 383.153 48Z" fill="url(#paint1_linear_2_12)"/>
<path d="M307.5 0H278.5C276.5 0 275.333 2.66667 275 4C274.833 38.6667 274 125.5 274 125.5C274 125.5 274 141.5 269 150L220 215.5C207.5 233 220 242 235.5 228L288 166.5C293 161 296.741 160.9 302 166.5L357.5 228C371.5 245 387 236.5 371.5 215.5C369.049 212.18 339.301 174.268 318.5 150C312.5 143 312.5 125.5 312.5 125.5C312.5 125 312 5.5 312 3.5C312 1.9 309 0.5 307.5 0Z" fill="url(#paint2_linear_2_12)"/>
</g>
<defs>
<filter id="filter0_i_2_12" x="0.5" y="0" width="590.99" height="510.055" filterUnits="userSpaceOnUse" color-interpolation-filters="sRGB">
<feFlood flood-opacity="0" result="BackgroundImageFix"/>
<feBlend mode="normal" in="SourceGraphic" in2="BackgroundImageFix" result="shape"/>
<feColorMatrix in="SourceAlpha" type="matrix" values="0 0 0 0 0 0 0 0 0 0 0 0 0 0 0 0 0 0 127 0" result="hardAlpha"/>
<feOffset dy="4"/>
<feGaussianBlur stdDeviation="2"/>
<feComposite in2="hardAlpha" operator="arithmetic" k2="-1" k3="1"/>
<feColorMatrix type="matrix" values="0 0 0 0 0 0 0 0 0 0 0 0 0 0 0 0 0 0 0.25 0"/>
<feBlend mode="normal" in2="shape" result="effect1_innerShadow_2_12"/>
</filter>
<linearGradient id="paint0_linear_2_12" x1="295.995" y1="0" x2="295.995" y2="506.055" gradientUnits="userSpaceOnUse">
<stop stop-color="#33FFFC"/>
<stop offset="1" stop-color="#1F9997"/>
</linearGradient>
<linearGradient id="paint1_linear_2_12" x1="295.995" y1="0" x2="295.995" y2="506.055" gradientUnits="userSpaceOnUse">
<stop stop-color="#33FFFC"/>
<stop offset="1" stop-color="#1F9997"/>
</linearGradient>
<linearGradient id="paint2_linear_2_12" x1="296" y1="0" x2="296" y2="228" gradientUnits="userSpaceOnUse">
<stop stop-color="#004443"/>
<stop offset="1" stop-color="#002E2D"/>
</linearGradient>
</defs>
</svg>
